<svg width="1024" height="1024" viewBox="0 0 1024 1024" fill="none" xmlns="http://www.w3.org/2000/svg">
<path d="M368.931 329.003C355.569 310.156 359.993 284.029 378.813 270.648C397.633 257.266 423.722 261.697 437.085 280.544L514.066 389.121C527.428 407.969 523.004 434.095 504.184 447.477C485.364 460.859 459.275 456.428 445.912 437.581L368.931 329.003Z" fill="#18E3D0"/>
<path d="M586.19 297.304C605.573 285.022 631.227 290.8 643.491 310.21C655.755 329.62 649.985 355.311 630.603 367.593L504.059 447.779C484.677 460.061 459.023 454.282 446.759 434.873C434.495 415.463 440.265 389.771 459.647 377.49L586.19 297.304Z" fill="#18E3D0"/>
<path fill-rule="evenodd" clip-rule="evenodd" d="M568.296 254.186C545.971 287.722 523.299 342.569 529.057 425.597L452.759 430.903C445.77 330.112 473.449 258.585 504.66 211.701C520.1 188.507 536.131 171.74 548.608 160.581C554.852 154.996 560.233 150.791 564.249 147.863C566.258 146.398 567.93 145.249 569.203 144.404C569.839 143.981 570.377 143.634 570.807 143.36C571.023 143.224 571.211 143.105 571.372 143.005L571.593 142.869L571.688 142.811L571.731 142.784C571.752 142.772 571.772 142.76 591.608 175.5C611.445 208.24 611.464 208.229 611.483 208.217L611.518 208.195L611.582 208.156L611.68 208.096L611.759 208.047C611.759 208.047 611.663 208.107 611.472 208.234C611.089 208.488 610.336 209 609.268 209.779C607.129 211.339 603.747 213.955 599.555 217.705C591.159 225.214 579.624 237.169 568.296 254.186Z" fill="#18E3D0"/>
<path d="M607.873 775.906L873.022 507.246L873.026 507.242C910.23 469.527 930.734 419.454 930.734 366.024C930.734 312.595 910.23 262.521 873.026 224.806C835.816 187.105 786.525 166.445 734.031 166.445C681.522 166.445 631.367 186.307 594.159 224.008L539.559 281.004L502.113 255.89L537.107 173.157L540.199 170.023C591.901 117.637 660.797 88.697 734.031 88.697C807.25 88.697 876.148 117.638 927.848 170.023C979.526 222.384 1008 292.081 1008 366.024C1008 439.967 979.526 509.664 927.848 562.025L657.626 835.827C646.428 811.81 629.191 791.184 607.873 775.906Z" fill="#18E3D0"/>
<path fill-rule="evenodd" clip-rule="evenodd" d="M237.246 701.424C267.518 701.424 292.058 676.849 292.058 646.534C292.058 616.219 267.518 591.644 237.246 591.644C206.975 591.644 182.435 616.219 182.435 646.534C182.435 676.849 206.975 701.424 237.246 701.424ZM237.246 765.25C302.717 765.25 355.792 712.099 355.792 646.534C355.792 580.969 302.717 527.818 237.246 527.818C171.775 527.818 118.7 580.969 118.7 646.534C118.7 712.099 171.775 765.25 237.246 765.25Z" fill="#E9735B"/>
<path fill-rule="evenodd" clip-rule="evenodd" d="M280.586 180.606C310.857 180.606 335.397 156.031 335.397 125.716C335.397 95.4009 310.857 70.8258 280.586 70.8258C250.314 70.8258 225.774 95.4009 225.774 125.716C225.774 156.031 250.314 180.606 280.586 180.606ZM280.586 244.432C346.057 244.432 399.131 191.281 399.131 125.716C399.131 60.1509 346.057 7 280.586 7C215.114 7 162.04 60.1509 162.04 125.716C162.04 191.281 215.114 244.432 280.586 244.432Z" fill="#07B0F9"/>
<path fill-rule="evenodd" clip-rule="evenodd" d="M517.677 954.174C547.949 954.174 572.489 929.599 572.489 899.284C572.489 868.969 547.949 844.394 517.677 844.394C487.406 844.394 462.866 868.969 462.866 899.284C462.866 929.599 487.406 954.174 517.677 954.174ZM517.677 1018C583.148 1018 636.223 964.849 636.223 899.284C636.223 833.719 583.148 780.568 517.677 780.568C452.206 780.568 399.131 833.719 399.131 899.284C399.131 964.849 452.206 1018 517.677 1018Z" fill="#E32786"/>
<path d="M79.185 190.818L116.151 152.523L167.138 211.242L140.37 240.602L79.185 190.818Z" fill="#18E3D0"/>
<path d="M48.5925 235.496L117.426 271.239L102.129 308.258L28.1975 285.28L48.5925 235.496Z" fill="#18E3D0"/>
<path d="M18 338.894L94.4812 346.553V386.125L18 393.784V338.894Z" fill="#18E3D0"/>
<path d="M28.1975 446.121L102.129 423.144L117.426 460.163L48.5925 497.182L28.1975 446.121Z" fill="#18E3D0"/>
<path d="M79.185 541.86L139.095 492.076L168.413 523.989L113.602 578.879L79.185 541.86Z" fill="#18E3D0"/>
</svg>
